<svg width="148" height="16" viewBox="0 0 148 16" fill="none" xmlns="http://www.w3.org/2000/svg">
<g clip-path="url(#clip0_212_4080)">
<path d="M25.9817 10.3237C25.5927 12.1212 24.6435 13.0239 23.1147 13.0239C22.1344 13.0239 21.3681 12.681 20.8235 11.9872C20.275 11.2974 20.0027 9.98078 20.0027 8.03351C20.0027 4.66716 21.0063 2.98793 23.0214 2.98793C24.6746 2.98793 25.5615 3.97339 25.7094 5.91279H29.7511C29.7472 5.87337 29.7394 5.83789 29.7355 5.79847V0.043361H26.5768V0.748954C25.6238 0.268047 24.4684 0.0275936 23.0992 0.0275936C20.8196 0.0275936 19.0224 0.772605 17.7076 2.26263C16.3928 3.74871 15.7314 5.66445 15.7314 7.99803C15.7314 10.4932 16.4122 12.4484 17.7737 13.8635C19.1352 15.2747 20.9013 15.9842 23.0758 15.9842C24.4101 15.9842 25.5888 15.7122 26.6119 15.1683V15.9803H29.7706V10.3553H29.7667C29.7667 10.3434 29.7667 10.3356 29.7706 10.3237H25.9856H25.9817Z" fill="#A0ECFF"/>
<path d="M46.3768 0.0236511H40.7091V3.22444H41.4793V10.036C41.4793 10.8519 41.4093 11.455 41.2654 11.8374C41.1214 12.2237 40.8336 12.5312 40.4018 12.7559C40.2073 12.8583 39.9933 12.9372 39.7599 12.9924C39.5615 13.016 39.3476 13.0278 39.1219 13.0278C38.4879 13.0278 37.9549 12.9135 37.5231 12.6888C37.0875 12.4642 36.7996 12.1567 36.6557 11.7704C36.5117 11.3841 36.4378 10.7849 36.4378 9.96896V3.23627H37.2431V0.0354767H31.4819V3.23627H32.3689V9.96896C32.3689 11.4945 32.5945 12.6573 33.0496 13.4536C33.5047 14.2459 34.1855 14.8569 35.0958 15.2905C35.6793 15.5664 36.395 15.7517 37.2353 15.8502C37.8227 15.9527 38.4606 16.0039 39.1608 16.0039C40.6935 16.0039 41.9111 15.7871 42.8175 15.3575C43.7238 14.9278 44.4007 14.3129 44.852 13.5206C45.3032 12.7243 45.5288 11.5654 45.5288 10.036V3.22838H46.3807V0.027593L46.3768 0.0236511Z" fill="#A0ECFF"/>
<path d="M6.85423 0C6.72197 0 6.5936 0 6.46523 0.00788371H0.0155601V3.29145H1.14367V5.67627V10.0951V12.7243H0V15.9961H6.9048C9.09488 15.9803 10.8298 15.2353 12.1019 13.7571C13.3895 12.2671 14.0313 10.3474 14.0313 8.00591C14.0313 5.50283 13.3661 3.54373 12.0357 2.12466C10.7054 0.709534 8.97818 0 6.85423 0ZM6.9048 13.0318C6.86979 13.0318 6.83867 13.0318 6.80366 13.0318H4.31015V2.9761H6.79977C6.79977 2.9761 6.80755 2.9761 6.81144 2.9761H6.81922H6.88924C7.80728 2.99975 8.52694 3.34269 9.0482 4.01675C9.58503 4.71052 9.84955 6.03104 9.84955 7.97832C9.84955 11.3525 8.86926 13.0357 6.90091 13.0357L6.9048 13.0318Z" fill="#A0ECFF"/>
<path d="M57.9496 2.8342C54.2347 2.8342 51.8423 5.4437 51.8423 9.32249C51.8423 13.2013 54.2113 15.7674 58.0858 15.7674C61.2989 15.7674 63.419 14.1986 63.8741 11.7467H60.2953C59.9763 12.4878 59.2022 12.949 58.1519 12.949C56.6037 12.949 55.6234 11.9084 55.6234 10.2922V10.2212H63.9208V9.22789C63.9208 5.06923 61.4118 2.83025 57.9496 2.83025V2.8342ZM55.6273 7.9389C55.6856 6.63415 56.6776 5.65262 58.043 5.65262C59.4084 5.65262 60.3225 6.59867 60.3459 7.9389H55.6273Z" fill="white"/>
<path d="M78.1506 1.19832L73.292 15.6925H76.9253L77.8939 12.5903H82.8731L83.8417 15.6925H87.4556L82.6164 1.19832H78.1506ZM78.703 9.98472L80.3213 4.78147H80.438L82.0562 9.98472H78.6991H78.703Z" fill="white"/>
<path d="M95.3563 6.68539H95.2785C94.8623 5.70387 93.9559 4.68293 92.2365 4.68293C89.9842 4.68293 87.9497 6.44494 87.9497 10.2685C87.9497 14.0921 89.8675 15.8542 92.256 15.8542C93.8937 15.8542 94.8428 14.912 95.2785 13.9305H95.3758V15.6925H98.6745V1.19832H95.3563V6.68145V6.68539ZM93.3802 13.2092C92.0965 13.2092 91.3652 12.0463 91.3652 10.2449C91.3652 8.44346 92.077 7.32397 93.3802 7.32397C94.6833 7.32397 95.4147 8.44346 95.4147 10.2449C95.4147 12.0463 94.6639 13.2092 93.3802 13.2092Z" fill="white"/>
<path d="M105.626 12.3695H105.509L103.475 4.82089H99.9775L103.654 15.6925H107.466L111.157 4.82089H107.641L105.626 12.3695Z" fill="white"/>
<path d="M115.779 4.82089H112.441V15.6886H115.779V4.82089Z" fill="white"/>
<path d="M114.122 0.279871C113.173 0.279871 112.402 1.00123 112.402 1.89997C112.402 2.79872 113.173 3.52008 114.122 3.52008C115.071 3.52008 115.861 2.79872 115.861 1.89997C115.861 1.00123 115.071 0.279871 114.122 0.279871Z" fill="white"/>
<path d="M124.275 9.28701L122.24 8.88495C121.31 8.70362 120.995 8.36462 121.015 7.94284C120.995 7.3831 121.645 7.00074 122.477 7.00074C123.368 7.00074 123.998 7.46194 124.096 8.18329H127.196C127.056 6.02316 125.298 4.67898 122.415 4.67898C119.533 4.67898 117.693 5.96009 117.712 8.12023C117.693 9.77975 118.759 10.8638 120.871 11.2619L122.707 11.6009C123.637 11.8019 124.049 12.1015 124.069 12.5824C124.049 13.1816 123.438 13.5442 122.528 13.5442C121.54 13.5442 120.867 13.1224 120.75 12.342H117.432C117.65 14.5021 119.447 15.8857 122.509 15.8857C125.411 15.8857 127.426 14.443 127.449 12.2237C127.43 10.643 126.403 9.70091 124.267 9.28307L124.275 9.28701Z" fill="white"/>
<path d="M134.074 4.68293C130.717 4.68293 128.682 6.94555 128.682 10.2882C128.682 13.6309 130.717 15.8936 134.074 15.8936C137.431 15.8936 139.465 13.6309 139.465 10.2882C139.465 6.94555 137.431 4.68293 134.074 4.68293ZM134.093 13.3511C132.79 13.3511 132.078 12.0897 132.078 10.2685C132.078 8.4474 132.79 7.18601 134.093 7.18601C135.396 7.18601 136.069 8.4474 136.069 10.2685C136.069 12.0897 135.357 13.3511 134.093 13.3511Z" fill="white"/>
<path d="M147.051 4.66322C145.864 4.66322 144.919 5.36487 144.522 6.78393H144.425V4.82089H141.185V15.6886H144.522V9.74427C144.522 8.44346 145.432 7.56048 146.677 7.56048C147.094 7.56048 147.685 7.61961 148 7.7221V4.78147C147.724 4.72234 147.37 4.66322 147.051 4.66322Z" fill="white"/>
<path d="M71.8992 8.1833H66.4531V10.5484H71.8992V8.1833Z" fill="white"/>
</g>
<defs>
<clipPath id="clip0_212_4080">
<rect width="148" height="16" fill="white"/>
</clipPath>
</defs>
</svg>
